<svg xmlns="http://www.w3.org/2000/svg" xmlns:xlink="http://www.w3.org/1999/xlink" version="1.1" x="0px" y="0px" viewBox="0 0 100 125" style="enable-background:new 0 0 100 100;" xml:space="preserve"><path d="M92.23,42.71c0.22-2.24-0.59-4.53-2.19-6.13c-0.05-0.05-9.05-9.06-9.1-9.1c-2.74-2.48-6.11-4.33-9.69-5.3l0,0l-25.98-7.01  L38.8,39.35h-6.85l-3.18-4.54c-0.2-0.29-0.53-0.46-0.88-0.46H12.81c-0.59,0-1.08,0.48-1.08,1.08v44.32  c0.01,0.58,0.49,1.07,1.08,1.08h56.93c0.26,0,0.51-0.11,0.71-0.28c0.12-0.09,0.2-0.21,0.27-0.34l7.61-16.33l7.76,2.08l5.97-22.28  l0,0C92.12,43.36,92.2,43.03,92.23,42.71z M76.54,26.84c1.12,0.72,2.2,1.51,3.15,2.44l8.18,8.18l-10.18-1.49  c-0.25-1.51-0.68-7.93-1.32-9.24C76.43,26.77,76.48,26.81,76.54,26.84z M27.32,36.5l3.18,4.54c0.2,0.29,0.53,0.46,0.88,0.46h6.84  l-1.86,6.94h-9.45c-0.42,0-0.8,0.24-0.97,0.62L13.89,74.9V36.5H27.32z M14.5,78.67L27.59,50.6h54.56L69.06,78.67H14.5z M84.58,63.32  l-5.32-1.43l5.56-11.92c0.16-0.33,0.13-0.72-0.07-1.03c-0.2-0.31-0.54-0.5-0.91-0.5H38.59l8.21-30.63l23.9,6.45l0,0  c2.19,0.59,3.77,2.42,4.03,4.67l1.02,8.92l11.94,1.75c1.65,0.2,2.77,1.97,2.3,3.55C89.98,43.16,84.58,63.32,84.58,63.32z"/><text x="0" y="115" fill="#000000" font-size="5px" font-weight="bold" font-family="'Helvetica Neue', Helvetica, Arial-Unicode, Arial, Sans-serif">Created by Pronto Illustration</text><text x="0" y="120" fill="#000000" font-size="5px" font-weight="bold" font-family="'Helvetica Neue', Helvetica, Arial-Unicode, Arial, Sans-serif">from the Noun Project</text></svg>